<?xml version="1.0" encoding="UTF-8" standalone="no"?>
<svg xmlns="http://www.w3.org/2000/svg" xmlns:xlink="http://www.w3.org/1999/xlink" version="1.1"
    width="38" height="38" viewBox="0 0 40 40" xml:space="preserve">
<desc>Created with Fabric.js 5.2.4</desc>
<defs>
</defs>
<g transform="matrix(1 0 0 1 20 20)" id="6cb6512d-2a04-4885-bedc-ad733979ec71"  >
<rect style="stroke: none; stroke-width: 1; stroke-dasharray: none; stroke-linecap: butt; stroke-dashoffset: 0; stroke-linejoin: miter; stroke-miterlimit: 4; fill: rgb(255,255,255); fill-rule: nonzero; opacity: 1; visibility: hidden;" vector-effect="non-scaling-stroke"  x="-20" y="-20" rx="0" ry="0" width="40" height="40" />
</g>
<g transform="matrix(Infinity NaN NaN Infinity 0 0)" id="35c77547-8d99-444d-8936-8db5873ed93e"  >
</g>
<g transform="matrix(0.37 0 0 0.45 20 20.62)" id="8445abec-19a1-4b22-8367-4836c6271a99"  >
<circle style="stroke: rgb(0,0,0); stroke-width: 0; stroke-dasharray: none; stroke-linecap: butt; stroke-dashoffset: 0; stroke-linejoin: miter; stroke-miterlimit: 4; fill: rgb(255,255,255); fill-rule: nonzero; opacity: 1;" vector-effect="non-scaling-stroke"  cx="0" cy="0" r="35" />
</g>
<g transform="matrix(0.65 0 0 0.65 19.5 19.5)"  >
<path style="stroke: rgb(0,0,0); stroke-width: 0; stroke-dasharray: none; stroke-linecap: butt; stroke-dashoffset: 0; stroke-linejoin: miter; stroke-miterlimit: 4; fill: rgb(0,122,37); fill-rule: nonzero; opacity: 1;" vector-effect="non-scaling-stroke"  transform=" translate(-32, -32)" d="M 32 6 C 17.641 6 6 17.641 6 32 C 6 44.277 14.512 54.56 25.955 57.286 C 25.363 57.145 24.776 56.987 24.2 56.807 L 24.2 50.85 C 24.2 50.85 23.224999999999998 51.175000000000004 21.925 51.175000000000004 C 18.288 51.175000000000004 16.777 47.93000000000001 16.4 46.300000000000004 C 16.171 45.307 15.572999999999999 44.36600000000001 14.931 43.791000000000004 C 14.164 43.107000000000006 13.805 43.105000000000004 13.799999999999999 42.871 C 13.79 42.38 14.457999999999998 42.400000000000006 14.774999999999999 42.400000000000006 C 16.4 42.400000000000006 17.631999999999998 44.129000000000005 18.203999999999997 45.023 C 19.621 47.230000000000004 21.141999999999996 47.6 21.924999999999997 47.6 C 22.9 47.6 23.741999999999997 47.454 24.321999999999996 47.174 C 24.589999999999996 45.286 25.429999999999996 43.604 26.799999999999997 42.4 C 20.702999999999996 41.181 16.4 37.684 16.4 32 C 16.4 29.072 17.575 26.381 19.532999999999998 24.208 C 19.333 23.641 19 22.494 19 20.625 C 19 19.39 19.086 17.874 19.65 16.4 C 19.65 16.4 23.357999999999997 16.426 26.854999999999997 19.738 C 28.469 19.268 30.196 19 32 19 C 33.804 19 35.531 19.268 37.144999999999996 19.738 C 40.641999999999996 16.426 44.349999999999994 16.4 44.349999999999994 16.4 C 44.916999999999994 17.874 44.99999999999999 19.39 44.99999999999999 20.625 C 44.99999999999999 22.64 44.73199999999999 23.815 44.56799999999999 24.322 C 46.466 26.475 47.6 29.124 47.6 32 C 47.6 37.684 43.297000000000004 41.181 37.2 42.4 C 38.828 43.83 39.800000000000004 45.913 39.800000000000004 48.25 L 39.800000000000004 56.807 C 39.224000000000004 56.988 38.638000000000005 57.145 38.045 57.286 C 49.488 54.56 58 44.277 58 32 C 58 17.641 46.359 6 32 6 z M 33.813 57.93 C 33.214 57.972 32.61 58 32 58 C 32.61 58 33.213 57.971 33.813 57.93 z M 37.786 57.346 C 36.622 57.611 35.429 57.797 34.211 57.9 C 35.429 57.797 36.622 57.61 37.786 57.346 z M 32 58 C 31.39 58 30.786 57.972 30.187 57.93 C 30.787 57.971 31.39 58 32 58 z M 29.788 57.9 C 28.571 57.797 27.377 57.611 26.214 57.346 C 27.378 57.61 28.571 57.797 29.788 57.9 z" stroke-linecap="round" />
</g>
<g transform="matrix(NaN NaN NaN NaN 0 0)"  >
<g style=""   >
</g>
</g>
<g transform="matrix(NaN NaN NaN NaN 0 0)"  >
<g style=""   >
</g>
</g>
</svg>